{
  "accessors": [
    {
      "bufferView": 2,
      "componentType": 5126,
      "count": 18916,
      "max": [
        1376.5997314453125,
        661.8519897460938,
        1165.2186279296875
      ],
      "min": [
        -1162.6732177734375,
        -571.4127197265625,
        269.8037109375
      ],
      "type": "VEC3"
    },
    {
      "bufferView": 2,
      "byteOffset": 226992,
      "componentType": 5126,
      "count": 18916,
      "max": [
        1.0,
        1.0,
        1.0
      ],
      "min": [
        -1.0,
        -1.0,
        -1.0
      ],
      "type": "VEC3"
    },
    {
      "bufferView": 1,
      "componentType": 5126,
      "count": 18916,
      "max": [
        108.90470123291016,
        140.12939453125
      ],
      "min": [
        -108.90470123291016,
        -131.4927978515625
      ],
      "type": "VEC2"
    },
    {
      "bufferView": 0,
      "componentType": 5125,
      "count": 23886,
      "type": "SCALAR"
    },
    {
      "bufferView": 2,
      "byteOffset": 453984,
      "componentType": 5126,
      "count": 281,
      "max": [
        1353.7998046875,
        221.9219970703125,
        848.9312133789063
      ],
      "min": [
        -1016.9751586914063,
        -52.44810104370117,
        438.50518798828125
      ],
      "type": "VEC3"
    },
    {
      "bufferView": 2,
      "byteOffset": 457356,
      "componentType": 5126,
      "count": 281,
      "max": [
        1.0,
        0.0,
        0.05497260019183159
      ],
      "min": [
        -0.7562975287437439,
        -1.0,
        -1.6292099758175027e-07
      ],
      "type": "VEC3"
    },
    {
      "bufferView": 1,
      "byteOffset": 151328,
      "componentType": 5126,
      "count": 281,
      "max": [
        0.9286999702453613,
        0.278298020362854
      ],
      "min": [
        0.004864989779889584,
        -0.008488059043884277
      ],
      "type": "VEC2"
    },
    {
      "bufferView": 0,
      "byteOffset": 95544,
      "componentType": 5125,
      "count": 348,
      "type": "SCALAR"
    },
    {
      "bufferView": 2,
      "byteOffset": 460728,
      "componentType": 5126,
      "count": 972,
      "max": [
        1336.427734375,
        244.0511016845703,
        1057.017822265625
      ],
      "min": [
        -81.85389709472656,
        -49.823631286621094,
        283.67449951171875
      ],
      "type": "VEC3"
    },
    {
      "bufferView": 2,
      "byteOffset": 472392,
      "componentType": 5126,
      "count": 972,
      "max": [
        0.87654048204422,
        1.0,
        1.0
      ],
      "min": [
        -0.9918347001075745,
        -0.9178168773651123,
        -0.6734254956245422
      ],
      "type": "VEC3"
    },
    {
      "bufferView": 1,
      "byteOffset": 153576,
      "componentType": 5126,
      "count": 972,
      "max": [
        1185.1700439453125,
        487.5018005371094
      ],
      "min": [
        -1073.873046875,
        -49.777950286865234
      ],
      "type": "VEC2"
    },
    {
      "bufferView": 0,
      "byteOffset": 96936,
      "componentType": 5125,
      "count": 1068,
      "type": "SCALAR"
    },
    {
      "bufferView": 2,
      "byteOffset": 484056,
      "componentType": 5126,
      "count": 36,
      "max": [
        -99.11610412597656,
        -68.01809692382813,
        643.4788818359375
      ],
      "min": [
        -468.7146301269531,
        -259.30999755859375,
        585.35546875
      ],
      "type": "VEC3"
    },
    {
      "bufferView": 2,
      "byteOffset": 484488,
      "componentType": 5126,
      "count": 36,
      "max": [
        1.0,
        3.0886978947819443e-06,
        6.773563200113131e-06
      ],
      "min": [
        -2.791717031137482e-17,
        -1.0,
        -1.6292099758175027e-07
      ],
      "type": "VEC3"
    },
    {
      "bufferView": 1,
      "byteOffset": 161352,
      "componentType": 5126,
      "count": 36,
      "max": [
        0.7489113807678223,
        1.0000040531158447
      ],
      "min": [
        -4.440892098500626e-16,
        0.32278668880462646
      ],
      "type": "VEC2"
    },
    {
      "bufferView": 0,
      "byteOffset": 101208,
      "componentType": 5125,
      "count": 54,
      "type": "SCALAR"
    },
    {
      "bufferView": 2,
      "byteOffset": 484920,
      "componentType": 5126,
      "count": 69,
      "max": [
        -480.0345764160156,
        181.0980987548828,
        686.3394775390625
      ],
      "min": [
        -1016.7581176757813,
        -185.06069946289063,
        458.0390930175781
      ],
      "type": "VEC3"
    },
    {
      "bufferView": 2,
      "byteOffset": 485748,
      "componentType": 5126,
      "count": 69,
      "max": [
        1.0,
        1.0,
        1.0
      ],
      "min": [
        -0.008202565833926201,
        -0.022395459935069084,
        0.0
      ],
      "type": "VEC3"
    },
    {
      "bufferView": 1,
      "byteOffset": 161640,
      "componentType": 5126,
      "count": 69,
      "max": [
        740.2139282226563,
        646.0062255859375
      ],
      "min": [
        -1114.323974609375,
        -764.2169799804688
      ],
      "type": "VEC2"
    },
    {
      "bufferView": 0,
      "byteOffset": 101424,
      "componentType": 5125,
      "count": 120,
      "type": "SCALAR"
    },
    {
      "bufferView": 2,
      "byteOffset": 486576,
      "componentType": 5126,
      "count": 511,
      "max": [
        1357.9307861328125,
        218.0054931640625,
        520.062744140625
      ],
      "min": [
        -1072.55517578125,
        -58.700199127197266,
        290.12091064453125
      ],
      "type": "VEC3"
    },
    {
      "bufferView": 2,
      "byteOffset": 492708,
      "componentType": 5126,
      "count": 511,
      "max": [
        1.0,
        0.0,
        1.0
      ],
      "min": [
        -0.3137628138065338,
        -1.0,
        -0.1601342111825943
      ],
      "type": "VEC3"
    },
    {
      "bufferView": 1,
      "byteOffset": 162192,
      "componentType": 5126,
      "count": 511,
      "max": [
        863.9874267578125,
        54.24822998046875
      ],
      "min": [
        -1.3037129974691197e-05,
        0.0
      ],
      "type": "VEC2"
    },
    {
      "bufferView": 0,
      "byteOffset": 101904,
      "componentType": 5125,
      "count": 642,
      "type": "SCALAR"
    },
    {
      "bufferView": 2,
      "byteOffset": 498840,
      "componentType": 5126,
      "count": 220,
      "max": [
        1215.5067138671875,
        -56.98344039916992,
        660.127197265625
      ],
      "min": [
        879.0862426757813,
        -223.75750732421875,
        297.4389953613281
      ],
      "type": "VEC3"
    },
    {
      "bufferView": 2,
      "byteOffset": 501480,
      "componentType": 5126,
      "count": 220,
      "max": [
        0.20892763137817383,
        1.0,
        1.0
      ],
      "min": [
        -0.18256691098213196,
        -1.0,
        -0.6069260239601135
      ],
      "type": "VEC3"
    },
    {
      "bufferView": 1,
      "byteOffset": 166280,
      "componentType": 5126,
      "count": 220,
      "max": [
        914.5205078125,
        797.5172119140625
      ],
      "min": [
        -1067.4189453125,
        -840.8594970703125
      ],
      "type": "VEC2"
    },
    {
      "bufferView": 0,
      "byteOffset": 104472,
      "componentType": 5125,
      "count": 270,
      "type": "SCALAR"
    },
    {
      "bufferView": 2,
      "byteOffset": 504120,
      "componentType": 5126,
      "count": 66,
      "max": [
        -67.61849975585938,
        -68.659912109375,
        589.001220703125
      ],
      "min": [
        -487.5050964355469,
        -207.4394073486328,
        579.7744750976563
      ],
      "type": "VEC3"
    },
    {
      "bufferView": 2,
      "byteOffset": 504912,
      "componentType": 5126,
      "count": 66,
      "max": [
        1.6443860357235967e-15,
        1.0,
        1.0
      ],
      "min": [
        -1.5856149723157123e-16,
        -1.6292099758175027e-07,
        1.6292099758175027e-07
      ],
      "type": "VEC3"
    },
    {
      "bufferView": 1,
      "byteOffset": 168040,
      "componentType": 5126,
      "count": 66,
      "max": [
        2.0,
        2.9921000003814697
      ],
      "min": [
        1.5023000240325928,
        2.0
      ],
      "type": "VEC2"
    },
    {
      "bufferView": 0,
      "byteOffset": 105552,
      "componentType": 5125,
      "count": 90,
      "type": "SCALAR"
    },
    {
      "bufferView": 2,
      "byteOffset": 505704,
      "componentType": 5126,
      "count": 4528,
      "max": [
        1348.9947509765625,
        537.4157104492188,
        1018.2728881835938
      ],
      "min": [
        -388.3924865722656,
        -43.594581604003906,
        280.4595947265625
      ],
      "type": "VEC3"
    },
    {
      "bufferView": 2,
      "byteOffset": 560040,
      "componentType": 5126,
      "count": 4528,
      "max": [
        1.0,
        1.0,
        1.0
      ],
      "min": [
        -1.0,
        -1.0,
        -1.0
      ],
      "type": "VEC3"
    },
    {
      "bufferView": 1,
      "byteOffset": 168568,
      "componentType": 5126,
      "count": 4528,
      "max": [
        794.25830078125,
        105.92919921875
      ],
      "min": [
        -758.3673095703125,
        -535.0551147460938
      ],
      "type": "VEC2"
    },
    {
      "bufferView": 0,
      "byteOffset": 105912,
      "componentType": 5125,
      "count": 5157,
      "type": "SCALAR"
    },
    {
      "bufferView": 2,
      "byteOffset": 614376,
      "componentType": 5126,
      "count": 894,
      "max": [
        1376.5997314453125,
        365.0787048339844,
        1154.1446533203125
      ],
      "min": [
        -1158.7001953125,
        -95.78041076660156,
        280.49969482421875
      ],
      "type": "VEC3"
    },
    {
      "bufferView": 2,
      "byteOffset": 625104,
      "componentType": 5126,
      "count": 894,
      "max": [
        1.0,
        1.0,
        1.0
      ],
      "min": [
        -1.0,
        -1.0,
        -1.0
      ],
      "type": "VEC3"
    },
    {
      "bufferView": 1,
      "byteOffset": 204792,
      "componentType": 5126,
      "count": 894,
      "max": [
        1221.8079833984375,
        2.000499963760376
      ],
      "min": [
        -219.30140686035156,
        -363.814208984375
      ],
      "type": "VEC2"
    },
    {
      "bufferView": 0,
      "byteOffset": 126540,
      "componentType": 5125,
      "count": 1287,
      "type": "SCALAR"
    },
    {
      "bufferView": 2,
      "byteOffset": 635832,
      "componentType": 5126,
      "count": 880,
      "max": [
        -297.5421142578125,
        453.3778991699219,
        1165.12646484375
      ],
      "min": [
        -1162.6732177734375,
        -571.4127197265625,
        364.3106384277344
      ],
      "type": "VEC3"
    },
    {
      "bufferView": 2,
      "byteOffset": 646392,
      "componentType": 5126,
      "count": 880,
      "max": [
        1.0,
        1.0,
        1.0
      ],
      "min": [
        -1.0,
        -1.0,
        -1.0
      ],
      "type": "VEC3"
    },
    {
      "bufferView": 1,
      "byteOffset": 211944,
      "componentType": 5126,
      "count": 880,
      "max": [
        1306.8570556640625,
        568.5101928710938
      ],
      "min": [
        0.4989340007305145,
        -452.1109924316406
      ],
      "type": "VEC2"
    },
    {
      "bufferView": 0,
      "byteOffset": 131688,
      "componentType": 5125,
      "count": 1332,
      "type": "SCALAR"
    },
    {
      "bufferView": 2,
      "byteOffset": 656952,
      "componentType": 5126,
      "count": 426,
      "max": [
        996.1500244140625,
        439.3960876464844,
        1146.0020751953125
      ],
      "min": [
        -440.4460754394531,
        157.98890686035156,
        269.8037109375
      ],
      "type": "VEC3"
    },
    {
      "bufferView": 2,
      "byteOffset": 662064,
      "componentType": 5126,
      "count": 426,
      "max": [
        1.0,
        1.6292099758175027e-07,
        0.8778687715530396
      ],
      "min": [
        -0.0001206680026371032,
        -1.0,
        -1.0
      ],
      "type": "VEC3"
    },
    {
      "bufferView": 1,
      "byteOffset": 218984,
      "componentType": 5126,
      "count": 426,
      "max": [
        588.531494140625,
        2.007500171661377
      ],
      "min": [
        -120.12989807128906,
        -720.4338989257813
      ],
      "type": "VEC2"
    },
    {
      "bufferView": 0,
      "byteOffset": 137016,
      "componentType": 5125,
      "count": 606,
      "type": "SCALAR"
    },
    {
      "bufferView": 2,
      "byteOffset": 667176,
      "componentType": 5126,
      "count": 2880,
      "max": [
        1351.207763671875,
        311.0338134765625,
        1025.2225341796875
      ],
      "min": [
        -618.8326416015625,
        -200.89610290527344,
        283.4974060058594
      ],
      "type": "VEC3"
    },
    {
      "bufferView": 2,
      "byteOffset": 701736,
      "componentType": 5126,
      "count": 2880,
      "max": [
        1.0,
        1.0,
        1.0
      ],
      "min": [
        -1.0,
        -1.0,
        -1.0
      ],
      "type": "VEC3"
    },
    {
      "bufferView": 1,
      "byteOffset": 222392,
      "componentType": 5126,
      "count": 2880,
      "max": [
        1192.925048828125,
        1188.001953125
      ],
      "min": [
        -1184.0789794921875,
        -593.5714721679688
      ],
      "type": "VEC2"
    },
    {
      "bufferView": 0,
      "byteOffset": 139440,
      "componentType": 5125,
      "count": 3360,
      "type": "SCALAR"
    },
    {
      "bufferView": 2,
      "byteOffset": 736296,
      "componentType": 5126,
      "count": 145,
      "max": [
        977.0941162109375,
        -37.58974075317383,
        758.1445922851563
      ],
      "min": [
        942.8681030273438,
        -236.23939514160156,
        285.74609375
      ],
      "type": "VEC3"
    },
    {
      "bufferView": 2,
      "byteOffset": 738036,
      "componentType": 5126,
      "count": 145,
      "max": [
        1.0,
        1.0,
        0.8926252126693726
      ],
      "min": [
        -0.3431665301322937,
        -0.9527021050453186,
        -0.8552616238594055
      ],
      "type": "VEC3"
    },
    {
      "bufferView": 1,
      "byteOffset": 245432,
      "componentType": 5126,
      "count": 145,
      "max": [
        1.0,
        2.0
      ],
      "min": [
        -821.2109985351563,
        -80.79134368896484
      ],
      "type": "VEC2"
    },
    {
      "bufferView": 0,
      "byteOffset": 152880,
      "componentType": 5125,
      "count": 198,
      "type": "SCALAR"
    },
    {
      "bufferView": 2,
      "byteOffset": 739776,
      "componentType": 5126,
      "count": 939,
      "max": [
        1350.709716796875,
        187.28269958496094,
        461.4209899902344
      ],
      "min": [
        -988.5772094726563,
        -50.81575012207031,
        279.1366882324219
      ],
      "type": "VEC3"
    },
    {
      "bufferView": 2,
      "byteOffset": 751044,
      "componentType": 5126,
      "count": 939,
      "max": [
        1.0,
        1.0,
        1.0
      ],
      "min": [
        -1.0,
        -0.9876819849014282,
        -0.04165994003415108
      ],
      "type": "VEC3"
    },
    {
      "bufferView": 1,
      "byteOffset": 246592,
      "componentType": 5126,
      "count": 939,
      "max": [
        1122.7330322265625,
        143.72909545898438
      ],
      "min": [
        -1144.5260009765625,
        -33.53316879272461
      ],
      "type": "VEC2"
    },
    {
      "bufferView": 0,
      "byteOffset": 153672,
      "componentType": 5125,
      "count": 1365,
      "type": "SCALAR"
    },
    {
      "bufferView": 2,
      "byteOffset": 762312,
      "componentType": 5126,
      "count": 385,
      "max": [
        1349.1488037109375,
        13.769309997558594,
        417.67529296875
      ],
      "min": [
        1191.9818115234375,
        -48.63779067993164,
        339.7508850097656
      ],
      "type": "VEC3"
    },
    {
      "bufferView": 2,
      "byteOffset": 766932,
      "componentType": 5126,
      "count": 385,
      "max": [
        0.999998927116394,
        0.9999890923500061,
        1.0
      ],
      "min": [
        -0.999998927116394,
        -0.9998822808265686,
        -0.7260903716087341
      ],
      "type": "VEC3"
    },
    {
      "bufferView": 1,
      "byteOffset": 254104,
      "componentType": 5126,
      "count": 385,
      "max": [
        3.7471001148223877,
        21.617229461669922
      ],
      "min": [
        -1049.6240234375,
        0.5114002227783203
      ],
      "type": "VEC2"
    },
    {
      "bufferView": 0,
      "byteOffset": 159132,
      "componentType": 5125,
      "count": 435,
      "type": "SCALAR"
    },
    {
      "bufferView": 2,
      "byteOffset": 771552,
      "componentType": 5126,
      "count": 123,
      "max": [
        1368.3037109375,
        661.8519897460938,
        460.21160888671875
      ],
      "min": [
        -1062.67724609375,
        -500.1708984375,
        270.2218017578125
      ],
      "type": "VEC3"
    },
    {
      "bufferView": 2,
      "byteOffset": 773028,
      "componentType": 5126,
      "count": 123,
      "max": [
        1.4054050070182156e-16,
        -1.6292099758175027e-07,
        1.0
      ],
      "min": [
        -3.4652690281157314e-17,
        -1.6292099758175027e-07,
        1.0
      ],
      "type": "VEC3"
    },
    {
      "bufferView": 1,
      "byteOffset": 257184,
      "componentType": 5126,
      "count": 123,
      "max": [
        2.0,
        2.0
      ],
      "min": [
        -4.440892098500626e-16,
        0.0
      ],
      "type": "VEC2"
    },
    {
      "bufferView": 0,
      "byteOffset": 160872,
      "componentType": 5125,
      "count": 201,
      "type": "SCALAR"
    },
    {
      "bufferView": 2,
      "byteOffset": 774504,
      "componentType": 5126,
      "count": 180,
      "max": [
        -238.881591796875,
        131.79449462890625,
        553.47607421875
      ],
      "min": [
        -398.3302917480469,
        -34.150421142578125,
        464.8934020996094
      ],
      "type": "VEC3"
    },
    {
      "bufferView": 2,
      "byteOffset": 776664,
      "componentType": 5126,
      "count": 180,
      "max": [
        1.0,
        1.0,
        1.0
      ],
      "min": [
        -1.0,
        -1.0,
        -0.1060141995549202
      ],
      "type": "VEC3"
    },
    {
      "bufferView": 1,
      "byteOffset": 258168,
      "componentType": 5126,
      "count": 180,
      "max": [
        6.156300067901611,
        2.000993013381958
      ],
      "min": [
        0.8438000082969666,
        0.0
      ],
      "type": "VEC2"
    },
    {
      "bufferView": 0,
      "byteOffset": 161676,
      "componentType": 5125,
      "count": 276,
      "type": "SCALAR"
    },
    {
      "bufferView": 2,
      "byteOffset": 778824,
      "componentType": 5126,
      "count": 303,
      "max": [
        1349.634765625,
        11.083479881286621,
        488.2674255371094
      ],
      "min": [
        1161.8377685546875,
        -57.14173126220703,
        300.9823913574219
      ],
      "type": "VEC3"
    },
    {
      "bufferView": 2,
      "byteOffset": 782460,
      "componentType": 5126,
      "count": 303,
      "max": [
        1.0,
        1.0,
        1.0
      ],
      "min": [
        -1.0,
        -1.0,
        -1.0
      ],
      "type": "VEC3"
    },
    {
      "bufferView": 1,
      "byteOffset": 259608,
      "componentType": 5126,
      "count": 303,
      "max": [
        51.22677993774414,
        87.82756805419922
      ],
      "min": [
        -1123.498046875,
        -30.282669067382813
      ],
      "type": "VEC2"
    },
    {
      "bufferView": 0,
      "byteOffset": 162780,
      "componentType": 5125,
      "count": 420,
      "type": "SCALAR"
    },
    {
      "bufferView": 2,
      "byteOffset": 786096,
      "componentType": 5126,
      "count": 513,
      "max": [
        991.9949340820313,
        200.37399291992188,
        695.035888671875
      ],
      "min": [
        -204.2255859375,
        180.4488067626953,
        458.8154602050781
      ],
      "type": "VEC3"
    },
    {
      "bufferView": 2,
      "byteOffset": 792252,
      "componentType": 5126,
      "count": 513,
      "max": [
        0.918466329574585,
        0.0,
        0.8778687119483948
      ],
      "min": [
        -1.0,
        -1.0,
        -0.9351654052734375
      ],
      "type": "VEC3"
    },
    {
      "bufferView": 1,
      "byteOffset": 262032,
      "componentType": 5126,
      "count": 513,
      "max": [
        1.0001499652862549,
        2.0000109672546387
      ],
      "min": [
        -1.0658140189368556e-14,
        1.0
      ],
      "type": "VEC2"
    },
    {
      "bufferView": 0,
      "byteOffset": 164460,
      "componentType": 5125,
      "count": 666,
      "type": "SCALAR"
    },
    {
      "bufferView": 2,
      "byteOffset": 798408,
      "componentType": 5126,
      "count": 168,
      "max": [
        268.21539306640625,
        421.11260986328125,
        693.947021484375
      ],
      "min": [
        -1029.8232421875,
        -494.2394104003906,
        457.72637939453125
      ],
      "type": "VEC3"
    },
    {
      "bufferView": 2,
      "byteOffset": 800424,
      "componentType": 5126,
      "count": 168,
      "max": [
        1.0,
        1.0,
        1.0
      ],
      "min": [
        -1.9999999494757503e-05,
        -1.0,
        -0.003174375044181943
      ],
      "type": "VEC3"
    },
    {
      "bufferView": 1,
      "byteOffset": 266136,
      "componentType": 5126,
      "count": 168,
      "max": [
        1.0,
        2.0
      ],
      "min": [
        -5.551115123125783e-16,
        1.0
      ],
      "type": "VEC2"
    },
    {
      "bufferView": 0,
      "byteOffset": 167124,
      "componentType": 5125,
      "count": 252,
      "type": "SCALAR"
    },
    {
      "bufferView": 2,
      "byteOffset": 802440,
      "componentType": 5126,
      "count": 216,
      "max": [
        442.73980712890625,
        540.5479736328125,
        585.0068969726563
      ],
      "min": [
        323.1957092285156,
        528.314208984375,
        460.45489501953125
      ],
      "type": "VEC3"
    },
    {
      "bufferView": 2,
      "byteOffset": 805032,
      "componentType": 5126,
      "count": 216,
      "max": [
        1.0,
        1.0,
        1.0
      ],
      "min": [
        -1.0,
        -1.0,
        -0.9445568919181824
      ],
      "type": "VEC3"
    },
    {
      "bufferView": 1,
      "byteOffset": 267480,
      "componentType": 5126,
      "count": 216,
      "max": [
        3.5664000511169434,
        3.0009429454803467
      ],
      "min": [
        -536.059814453125,
        -96.95362854003906
      ],
      "type": "VEC2"
    },
    {
      "bufferView": 0,
      "byteOffset": 168132,
      "componentType": 5125,
      "count": 312,
      "type": "SCALAR"
    },
    {
      "bufferView": 2,
      "byteOffset": 807624,
      "componentType": 5126,
      "count": 1119,
      "max": [
        977.25,
        -40.21651077270508,
        757.339111328125
      ],
      "min": [
        -487.3949279785156,
        -74.44255828857422,
        284.94061279296875
      ],
      "type": "VEC3"
    },
    {
      "bufferView": 2,
      "byteOffset": 821052,
      "componentType": 5126,
      "count": 1119,
      "max": [
        0.9527152180671692,
        1.0,
        0.8925644159317017
      ],
      "min": [
        -1.0,
        -0.7639812231063843,
        -0.8551822900772095
      ],
      "type": "VEC3"
    },
    {
      "bufferView": 1,
      "byteOffset": 269208,
      "componentType": 5126,
      "count": 1119,
      "max": [
        52.74803924560547,
        2.000044822692871
      ],
      "min": [
        -8.881784197001252e-16,
        -79.9858169555664
      ],
      "type": "VEC2"
    },
    {
      "bufferView": 0,
      "byteOffset": 169380,
      "componentType": 5125,
      "count": 1389,
      "type": "SCALAR"
    },
    {
      "bufferView": 2,
      "byteOffset": 834480,
      "componentType": 5126,
      "count": 269,
      "max": [
        -239.02960205078125,
        -146.1826934814453,
        643.5540161132813
      ],
      "min": [
        -292.2311096191406,
        -196.98199462890625,
        579.7744750976563
      ],
      "type": "VEC3"
    },
    {
      "bufferView": 2,
      "byteOffset": 837708,
      "componentType": 5126,
      "count": 269,
      "max": [
        0.9998894929885864,
        0.9998828768730164,
        1.0
      ],
      "min": [
        -0.9998925924301147,
        -0.4872888922691345,
        -0.18167659640312195
      ],
      "type": "VEC3"
    },
    {
      "bufferView": 1,
      "byteOffset": 278160,
      "componentType": 5126,
      "count": 269,
      "max": [
        3.771199941635132,
        1.4777004718780518
      ],
      "min": [
        1.288699984550476,
        1.0083999633789063
      ],
      "type": "VEC2"
    },
    {
      "bufferView": 0,
      "byteOffset": 174936,
      "componentType": 5125,
      "count": 309,
      "type": "SCALAR"
    },
    {
      "bufferView": 2,
      "byteOffset": 840936,
      "componentType": 5126,
      "count": 42,
      "max": [
        379.95001220703125,
        534.5574951171875,
        528.5714111328125
      ],
      "min": [
        374.9681091308594,
        530.1306762695313,
        512.1304931640625
      ],
      "type": "VEC3"
    },
    {
      "bufferView": 2,
      "byteOffset": 841440,
      "componentType": 5126,
      "count": 42,
      "max": [
        0.34880730509757996,
        0.09820909053087234,
        0.9370226263999939
      ],
      "min": [
        -0.9372934103012085,
        -1.0,
        -0.9369384050369263
      ],
      "type": "VEC3"
    },
    {
      "bufferView": 1,
      "byteOffset": 280312,
      "componentType": 5126,
      "count": 42,
      "max": [
        1.618399977684021,
        0.9976000189781189
      ],
      "min": [
        1.0132759809494019,
        0.8330020904541016
      ],
      "type": "VEC2"
    },
    {
      "bufferView": 0,
      "byteOffset": 176172,
      "componentType": 5125,
      "count": 54,
      "type": "SCALAR"
    },
    {
      "bufferView": 2,
      "byteOffset": 841944,
      "componentType": 5126,
      "count": 269,
      "max": [
        -72.53439331054688,
        -38.300880432128906,
        756.9398803710938
      ],
      "min": [
        -485.9200744628906,
        -218.49459838867188,
        579.7744750976563
      ],
      "type": "VEC3"
    },
    {
      "bufferView": 2,
      "byteOffset": 845172,
      "componentType": 5126,
      "count": 269,
      "max": [
        1.0,
        1.0,
        1.0
      ],
      "min": [
        -1.3313049766056333e-15,
        -1.6292099758175027e-07,
        -1.0
      ],
      "type": "VEC3"
    },
    {
      "bufferView": 1,
      "byteOffset": 280648,
      "componentType": 5126,
      "count": 269,
      "max": [
        3.9258999824523926,
        3.0
      ],
      "min": [
        0.666700005531311,
        1.143399953842163
      ],
      "type": "VEC2"
    },
    {
      "bufferView": 0,
      "byteOffset": 176388,
      "componentType": 5125,
      "count": 417,
      "type": "SCALAR"
    },
    {
      "bufferView": 2,
      "byteOffset": 848400,
      "componentType": 5126,
      "count": 495,
      "max": [
        953.1106567382813,
        -46.020530700683594,
        774.8643188476563
      ],
      "min": [
        -488.8467712402344,
        -250.4315948486328,
        556.2941284179688
      ],
      "type": "VEC3"
    },
    {
      "bufferView": 2,
      "byteOffset": 854340,
      "componentType": 5126,
      "count": 495,
      "max": [
        1.0,
        1.0,
        0.9998338222503662
      ],
      "min": [
        -0.09724397212266922,
        -0.7456203103065491,
        -0.9993579983711243
      ],
      "type": "VEC3"
    },
    {
      "bufferView": 1,
      "byteOffset": 282800,
      "componentType": 5126,
      "count": 495,
      "max": [
        0.20559999346733093,
        200.26449584960938
      ],
      "min": [
        -805.0228271484375,
        -349.2961120605469
      ],
      "type": "VEC2"
    },
    {
      "bufferView": 0,
      "byteOffset": 178056,
      "componentType": 5125,
      "count": 501,
      "type": "SCALAR"
    },
    {
      "bufferView": 2,
      "byteOffset": 860280,
      "componentType": 5126,
      "count": 66,
      "max": [
        501.277587890625,
        538.100830078125,
        625.2965698242188
      ],
      "min": [
        272.9327087402344,
        192.6425018310547,
        625.2965698242188
      ],
      "type": "VEC3"
    },
    {
      "bufferView": 2,
      "byteOffset": 861072,
      "componentType": 5126,
      "count": 66,
      "max": [
        1.5454900582599604e-23,
        1.6292099758175027e-07,
        -1.0
      ],
      "min": [
        -2.697578969618547e-23,
        1.6292099758175027e-07,
        -1.0
      ],
      "type": "VEC3"
    },
    {
      "bufferView": 1,
      "byteOffset": 286760,
      "componentType": 5126,
      "count": 66,
      "max": [
        1.0,
        1.0
      ],
      "min": [
        -2.664535047342139e-15,
        0.0
      ],
      "type": "VEC2"
    },
    {
      "bufferView": 0,
      "byteOffset": 180060,
      "componentType": 5125,
      "count": 96,
      "type": "SCALAR"
    },
    {
      "bufferView": 2,
      "byteOffset": 861864,
      "componentType": 5126,
      "count": 568,
      "max": [
        1016.7272338867188,
        9.10382080078125,
        1165.2186279296875
      ],
      "min": [
        -496.6122131347656,
        -90.37093353271484,
        746.2626953125
      ],
      "type": "VEC3"
    },
    {
      "bufferView": 2,
      "byteOffset": 868680,
      "componentType": 5126,
      "count": 568,
      "max": [
        1.0,
        1.0,
        0.9046860933303833
      ],
      "min": [
        -0.0024555190466344357,
        -1.0,
        -1.0
      ],
      "type": "VEC3"
    },
    {
      "bufferView": 1,
      "byteOffset": 287288,
      "componentType": 5126,
      "count": 568,
      "max": [
        463.8424987792969,
        91.3708724975586
      ],
      "min": [
        -779.3928833007813,
        -739.6566772460938
      ],
      "type": "VEC2"
    },
    {
      "bufferView": 0,
      "byteOffset": 180444,
      "componentType": 5125,
      "count": 756,
      "type": "SCALAR"
    },
    {
      "bufferView": 2,
      "byteOffset": 875496,
      "componentType": 5126,
      "count": 66,
      "max": [
        1363.61474609375,
        188.2299041748047,
        722.5484619140625
      ],
      "min": [
        1161.83984375,
        -166.43389892578125,
        535.8162231445313
      ],
      "type": "VEC3"
    },
    {
      "bufferView": 2,
      "byteOffset": 876288,
      "componentType": 5126,
      "count": 66,
      "max": [
        4.777072203265177e-37,
        1.0,
        1.6292099758175027e-07
      ],
      "min": [
        -1.0,
        -0.9821624159812927,
        -1.600149062142009e-07
      ],
      "type": "VEC3"
    },
    {
      "bufferView": 1,
      "byteOffset": 291832,
      "componentType": 5126,
      "count": 66,
      "max": [
        2.0,
        0.9090999960899353
      ],
      "min": [
        1.0,
        0.0
      ],
      "type": "VEC2"
    },
    {
      "bufferView": 0,
      "byteOffset": 183468,
      "componentType": 5125,
      "count": 117,
      "type": "SCALAR"
    },
    {
      "bufferView": 2,
      "byteOffset": 877080,
      "componentType": 5126,
      "count": 726,
      "max": [
        1363.61474609375,
        188.2299041748047,
        722.5484619140625
      ],
      "min": [
        1142.8759765625,
        -174.3520050048828,
        279.6351013183594
      ],
      "type": "VEC3"
    },
    {
      "bufferView": 2,
      "byteOffset": 885792,
      "componentType": 5126,
      "count": 726,
      "max": [
        3.583587022149004e-05,
        1.0,
        1.0
      ],
      "min": [
        -1.0,
        -0.9827102422714233,
        -0.7082784175872803
      ],
      "type": "VEC3"
    },
    {
      "bufferView": 1,
      "byteOffset": 292360,
      "componentType": 5126,
      "count": 726,
      "max": [
        2.0000429153442383,
        1.0
      ],
      "min": [
        1.0,
        0.0
      ],
      "type": "VEC2"
    },
    {
      "bufferView": 0,
      "byteOffset": 183936,
      "componentType": 5125,
      "count": 900,
      "type": "SCALAR"
    },
    {
      "bufferView": 2,
      "byteOffset": 894504,
      "componentType": 5126,
      "count": 653,
      "max": [
        804.7642211914063,
        216.0991973876953,
        998.924072265625
      ],
      "min": [
        522.6838989257813,
        -56.51340866088867,
        459.9115295410156
      ],
      "type": "VEC3"
    },
    {
      "bufferView": 2,
      "byteOffset": 902340,
      "componentType": 5126,
      "count": 653,
      "max": [
        1.0,
        0.9250851273536682,
        1.0
      ],
      "min": [
        -0.3839358985424042,
        -1.0,
        -1.0
      ],
      "type": "VEC3"
    },
    {
      "bufferView": 1,
      "byteOffset": 298168,
      "componentType": 5126,
      "count": 653,
      "max": [
        1.0000020265579224,
        0.694100022315979
      ],
      "min": [
        -1.7830079741543159e-06,
        0.02039998769760132
      ],
      "type": "VEC2"
    },
    {
      "bufferView": 0,
      "byteOffset": 187536,
      "componentType": 5125,
      "count": 924,
      "type": "SCALAR"
    }
  ],
  "asset": {
    "extras": {
      "author": "Pasha (https://sketchfab.com/Pasha.)",
      "license": "SKETCHFAB Standard (https://sketchfab.com/licenses)",
      "source": "https://sketchfab.com/3d-models/abandoned-alley-game-ready-05ef7614bb9342e2a855158d266be1a6",
      "title": "Abandoned alley game ready"
    },
    "generator": "Sketchfab-16.73.0",
    "version": "2.0"
  },
  "bufferViews": [
    {
      "buffer": 0,
      "byteLength": 191232,
      "name": "floatBufferViews",
      "target": 34963
    },
    {
      "buffer": 0,
      "byteLength": 303392,
      "byteOffset": 191232,
      "byteStride": 8,
      "name": "floatBufferViews",
      "target": 34962
    },
    {
      "buffer": 0,
      "byteLength": 910176,
      "byteOffset": 494624,
      "byteStride": 12,
      "name": "floatBufferViews",
      "target": 34962
    }
  ],
  "buffers": [
    {
      "byteLength": 1404800,
      "uri": "scene.bin"
    }
  ],
  "images": [
    {
      "uri": "textures/auto_5_baseColor.png"
    },
    {
      "uri": "textures/auto_15_baseColor.png"
    },
    {
      "uri": "textures/auto_25_baseColor.png"
    },
    {
      "uri": "textures/auto_39_baseColor.png"
    },
    {
      "uri": "textures/auto_55_baseColor.png"
    },
    {
      "uri": "textures/auto_79_baseColor.png"
    },
    {
      "uri": "textures/auto_baseColor.jpeg"
    },
    {
      "uri": "textures/auto_2_baseColor.jpeg"
    },
    {
      "uri": "textures/auto_1_baseColor.jpeg"
    },
    {
      "uri": "textures/auto_3_baseColor.jpeg"
    },
    {
      "uri": "textures/auto_4_baseColor.jpeg"
    },
    {
      "uri": "textures/auto_11_baseColor.jpeg"
    },
    {
      "uri": "textures/auto_6_baseColor.jpeg"
    },
    {
      "uri": "textures/auto_9_baseColor.jpeg"
    },
    {
      "uri": "textures/auto_10_baseColor.jpeg"
    },
    {
      "uri": "textures/auto_32_baseColor.jpeg"
    },
    {
      "uri": "textures/auto_16_baseColor.jpeg"
    },
    {
      "uri": "textures/auto_17_baseColor.jpeg"
    },
    {
      "uri": "textures/auto_18_baseColor.jpeg"
    },
    {
      "uri": "textures/auto_21_baseColor.jpeg"
    },
    {
      "uri": "textures/auto_22_baseColor.jpeg"
    },
    {
      "uri": "textures/auto_23_baseColor.jpeg"
    },
    {
      "uri": "textures/auto_24_baseColor.jpeg"
    },
    {
      "uri": "textures/auto_28_baseColor.jpeg"
    },
    {
      "uri": "textures/auto_29_baseColor.jpeg"
    },
    {
      "uri": "textures/auto_34_baseColor.jpeg"
    },
    {
      "uri": "textures/auto_46_baseColor.jpeg"
    },
    {
      "uri": "textures/auto_52_baseColor.jpeg"
    },
    {
      "uri": "textures/auto_54_baseColor.jpeg"
    },
    {
      "uri": "textures/auto_56_baseColor.jpeg"
    },
    {
      "uri": "textures/auto_88_baseColor.jpeg"
    }
  ],
  "materials": [
    {
      "name": "material_1",
      "pbrMetallicRoughness": {
        "baseColorFactor": [
          0.03282970664197667,
          0.018128873270085652,
          0.0025912941729280014,
          1.0
        ],
        "metallicFactor": 0.0,
        "roughnessFactor": 0.6
      }
    },
    {
      "alphaMode": "BLEND",
      "name": "auto_5",
      "pbrMetallicRoughness": {
        "baseColorTexture": {
          "index": 0
        },
        "metallicFactor": 0.0,
        "roughnessFactor": 0.6
      }
    },
    {
      "alphaMode": "BLEND",
      "name": "auto_15",
      "pbrMetallicRoughness": {
        "baseColorTexture": {
          "index": 1
        },
        "metallicFactor": 0.0,
        "roughnessFactor": 0.6
      }
    },
    {
      "alphaMode": "BLEND",
      "name": "auto_25",
      "pbrMetallicRoughness": {
        "baseColorTexture": {
          "index": 2
        },
        "metallicFactor": 0.0,
        "roughnessFactor": 0.6
      }
    },
    {
      "alphaMode": "BLEND",
      "name": "auto_39",
      "pbrMetallicRoughness": {
        "baseColorTexture": {
          "index": 3
        },
        "metallicFactor": 0.0,
        "roughnessFactor": 0.6
      }
    },
    {
      "alphaMode": "BLEND",
      "name": "auto_55",
      "pbrMetallicRoughness": {
        "baseColorTexture": {
          "index": 4
        },
        "metallicFactor": 0.0,
        "roughnessFactor": 0.6
      }
    },
    {
      "alphaMode": "BLEND",
      "name": "auto_79",
      "pbrMetallicRoughness": {
        "baseColorTexture": {
          "index": 5
        },
        "metallicFactor": 0.0,
        "roughnessFactor": 0.6
      }
    },
    {
      "name": "auto",
      "pbrMetallicRoughness": {
        "baseColorTexture": {
          "index": 6
        },
        "metallicFactor": 0.0,
        "roughnessFactor": 0.6
      }
    },
    {
      "name": "auto_2",
      "pbrMetallicRoughness": {
        "baseColorTexture": {
          "index": 7
        },
        "metallicFactor": 0.0,
        "roughnessFactor": 0.6
      }
    },
    {
      "name": "auto_1",
      "pbrMetallicRoughness": {
        "baseColorTexture": {
          "index": 8
        },
        "metallicFactor": 0.0,
        "roughnessFactor": 0.6
      }
    },
    {
      "name": "auto_3",
      "pbrMetallicRoughness": {
        "baseColorTexture": {
          "index": 9
        },
        "metallicFactor": 0.0,
        "roughnessFactor": 0.6
      }
    },
    {
      "name": "auto_4",
      "pbrMetallicRoughness": {
        "baseColorTexture": {
          "index": 10
        },
        "metallicFactor": 0.0,
        "roughnessFactor": 0.6
      }
    },
    {
      "name": "auto_11",
      "pbrMetallicRoughness": {
        "baseColorTexture": {
          "index": 11
        },
        "metallicFactor": 0.0,
        "roughnessFactor": 0.6
      }
    },
    {
      "name": "auto_6",
      "pbrMetallicRoughness": {
        "baseColorTexture": {
          "index": 12
        },
        "metallicFactor": 0.0,
        "roughnessFactor": 0.6
      }
    },
    {
      "name": "auto_9",
      "pbrMetallicRoughness": {
        "baseColorTexture": {
          "index": 13
        },
        "metallicFactor": 0.0,
        "roughnessFactor": 0.6
      }
    },
    {
      "name": "auto_10",
      "pbrMetallicRoughness": {
        "baseColorTexture": {
          "index": 14
        },
        "metallicFactor": 0.0,
        "roughnessFactor": 0.6
      }
    },
    {
      "name": "auto_32",
      "pbrMetallicRoughness": {
        "baseColorTexture": {
          "index": 15
        },
        "metallicFactor": 0.0,
        "roughnessFactor": 0.6
      }
    },
    {
      "name": "auto_16",
      "pbrMetallicRoughness": {
        "baseColorTexture": {
          "index": 16
        },
        "metallicFactor": 0.0,
        "roughnessFactor": 0.6
      }
    },
    {
      "name": "auto_17",
      "pbrMetallicRoughness": {
        "baseColorTexture": {
          "index": 17
        },
        "metallicFactor": 0.0,
        "roughnessFactor": 0.6
      }
    },
    {
      "name": "auto_18",
      "pbrMetallicRoughness": {
        "baseColorTexture": {
          "index": 18
        },
        "metallicFactor": 0.0,
        "roughnessFactor": 0.6
      }
    },
    {
      "name": "auto_21",
      "pbrMetallicRoughness": {
        "baseColorTexture": {
          "index": 19
        },
        "metallicFactor": 0.0,
        "roughnessFactor": 0.6
      }
    },
    {
      "name": "auto_22",
      "pbrMetallicRoughness": {
        "baseColorTexture": {
          "index": 20
        },
        "metallicFactor": 0.0,
        "roughnessFactor": 0.6
      }
    },
    {
      "name": "auto_23",
      "pbrMetallicRoughness": {
        "baseColorTexture": {
          "index": 21
        },
        "metallicFactor": 0.0,
        "roughnessFactor": 0.6
      }
    },
    {
      "name": "auto_24",
      "pbrMetallicRoughness": {
        "baseColorTexture": {
          "index": 22
        },
        "metallicFactor": 0.0,
        "roughnessFactor": 0.6
      }
    },
    {
      "name": "auto_28",
      "pbrMetallicRoughness": {
        "baseColorTexture": {
          "index": 23
        },
        "metallicFactor": 0.0,
        "roughnessFactor": 0.6
      }
    },
    {
      "name": "auto_29",
      "pbrMetallicRoughness": {
        "baseColorTexture": {
          "index": 24
        },
        "metallicFactor": 0.0,
        "roughnessFactor": 0.6
      }
    },
    {
      "name": "auto_34",
      "pbrMetallicRoughness": {
        "baseColorTexture": {
          "index": 25
        },
        "metallicFactor": 0.0,
        "roughnessFactor": 0.6
      }
    },
    {
      "name": "auto_46",
      "pbrMetallicRoughness": {
        "baseColorTexture": {
          "index": 26
        },
        "metallicFactor": 0.0,
        "roughnessFactor": 0.6
      }
    },
    {
      "name": "auto_52",
      "pbrMetallicRoughness": {
        "baseColorTexture": {
          "index": 27
        },
        "metallicFactor": 0.0,
        "roughnessFactor": 0.6
      }
    },
    {
      "name": "auto_54",
      "pbrMetallicRoughness": {
        "baseColorTexture": {
          "index": 28
        },
        "metallicFactor": 0.0,
        "roughnessFactor": 0.6
      }
    },
    {
      "name": "auto_56",
      "pbrMetallicRoughness": {
        "baseColorTexture": {
          "index": 29
        },
        "metallicFactor": 0.0,
        "roughnessFactor": 0.6
      }
    },
    {
      "name": "auto_88",
      "pbrMetallicRoughness": {
        "baseColorTexture": {
          "index": 30
        },
        "metallicFactor": 0.0,
        "roughnessFactor": 0.6
      }
    }
  ],
  "meshes": [
    {
      "name": "Material2",
      "primitives": [
        {
          "attributes": {
            "NORMAL": 1,
            "POSITION": 0,
            "TEXCOORD_0": 2
          },
          "indices": 3,
          "material": 0,
          "mode": 4
        }
      ]
    },
    {
      "name": "Material3",
      "primitives": [
        {
          "attributes": {
            "NORMAL": 5,
            "POSITION": 4,
            "TEXCOORD_0": 6
          },
          "indices": 7,
          "material": 1,
          "mode": 4
        }
      ]
    },
    {
      "name": "Material3",
      "primitives": [
        {
          "attributes": {
            "NORMAL": 9,
            "POSITION": 8,
            "TEXCOORD_0": 10
          },
          "indices": 11,
          "material": 2,
          "mode": 4
        }
      ]
    },
    {
      "name": "Material3",
      "primitives": [
        {
          "attributes": {
            "NORMAL": 13,
            "POSITION": 12,
            "TEXCOORD_0": 14
          },
          "indices": 15,
          "material": 3,
          "mode": 4
        }
      ]
    },
    {
      "name": "Material3",
      "primitives": [
        {
          "attributes": {
            "NORMAL": 17,
            "POSITION": 16,
            "TEXCOORD_0": 18
          },
          "indices": 19,
          "material": 4,
          "mode": 4
        }
      ]
    },
    {
      "name": "Material3",
      "primitives": [
        {
          "attributes": {
            "NORMAL": 21,
            "POSITION": 20,
            "TEXCOORD_0": 22
          },
          "indices": 23,
          "material": 5,
          "mode": 4
        }
      ]
    },
    {
      "name": "Material3",
      "primitives": [
        {
          "attributes": {
            "NORMAL": 25,
            "POSITION": 24,
            "TEXCOORD_0": 26
          },
          "indices": 27,
          "material": 6,
          "mode": 4
        }
      ]
    },
    {
      "name": "Material2",
      "primitives": [
        {
          "attributes": {
            "NORMAL": 29,
            "POSITION": 28,
            "TEXCOORD_0": 30
          },
          "indices": 31,
          "material": 7,
          "mode": 4
        }
      ]
    },
    {
      "name": "Material3",
      "primitives": [
        {
          "attributes": {
            "NORMAL": 33,
            "POSITION": 32,
            "TEXCOORD_0": 34
          },
          "indices": 35,
          "material": 8,
          "mode": 4
        }
      ]
    },
    {
      "name": "Material3",
      "primitives": [
        {
          "attributes": {
            "NORMAL": 37,
            "POSITION": 36,
            "TEXCOORD_0": 38
          },
          "indices": 39,
          "material": 9,
          "mode": 4
        }
      ]
    },
    {
      "name": "Material3",
      "primitives": [
        {
          "attributes": {
            "NORMAL": 41,
            "POSITION": 40,
            "TEXCOORD_0": 42
          },
          "indices": 43,
          "material": 10,
          "mode": 4
        }
      ]
    },
    {
      "name": "Material3",
      "primitives": [
        {
          "attributes": {
            "NORMAL": 45,
            "POSITION": 44,
            "TEXCOORD_0": 46
          },
          "indices": 47,
          "material": 11,
          "mode": 4
        }
      ]
    },
    {
      "name": "Material3",
      "primitives": [
        {
          "attributes": {
            "NORMAL": 49,
            "POSITION": 48,
            "TEXCOORD_0": 50
          },
          "indices": 51,
          "material": 12,
          "mode": 4
        }
      ]
    },
    {
      "name": "Material3",
      "primitives": [
        {
          "attributes": {
            "NORMAL": 53,
            "POSITION": 52,
            "TEXCOORD_0": 54
          },
          "indices": 55,
          "material": 13,
          "mode": 4
        }
      ]
    },
    {
      "name": "Material3",
      "primitives": [
        {
          "attributes": {
            "NORMAL": 57,
            "POSITION": 56,
            "TEXCOORD_0": 58
          },
          "indices": 59,
          "material": 14,
          "mode": 4
        }
      ]
    },
    {
      "name": "Material3",
      "primitives": [
        {
          "attributes": {
            "NORMAL": 61,
            "POSITION": 60,
            "TEXCOORD_0": 62
          },
          "indices": 63,
          "material": 15,
          "mode": 4
        }
      ]
    },
    {
      "name": "Material3",
      "primitives": [
        {
          "attributes": {
            "NORMAL": 65,
            "POSITION": 64,
            "TEXCOORD_0": 66
          },
          "indices": 67,
          "material": 16,
          "mode": 4
        }
      ]
    },
    {
      "name": "Material3",
      "primitives": [
        {
          "attributes": {
            "NORMAL": 69,
            "POSITION": 68,
            "TEXCOORD_0": 70
          },
          "indices": 71,
          "material": 17,
          "mode": 4
        }
      ]
    },
    {
      "name": "Material3",
      "primitives": [
        {
          "attributes": {
            "NORMAL": 73,
            "POSITION": 72,
            "TEXCOORD_0": 74
          },
          "indices": 75,
          "material": 18,
          "mode": 4
        }
      ]
    },
    {
      "name": "Material3",
      "primitives": [
        {
          "attributes": {
            "NORMAL": 77,
            "POSITION": 76,
            "TEXCOORD_0": 78
          },
          "indices": 79,
          "material": 19,
          "mode": 4
        }
      ]
    },
    {
      "name": "Material3",
      "primitives": [
        {
          "attributes": {
            "NORMAL": 81,
            "POSITION": 80,
            "TEXCOORD_0": 82
          },
          "indices": 83,
          "material": 20,
          "mode": 4
        }
      ]
    },
    {
      "name": "Material3",
      "primitives": [
        {
          "attributes": {
            "NORMAL": 85,
            "POSITION": 84,
            "TEXCOORD_0": 86
          },
          "indices": 87,
          "material": 21,
          "mode": 4
        }
      ]
    },
    {
      "name": "Material3",
      "primitives": [
        {
          "attributes": {
            "NORMAL": 89,
            "POSITION": 88,
            "TEXCOORD_0": 90
          },
          "indices": 91,
          "material": 22,
          "mode": 4
        }
      ]
    },
    {
      "name": "Material3",
      "primitives": [
        {
          "attributes": {
            "NORMAL": 93,
            "POSITION": 92,
            "TEXCOORD_0": 94
          },
          "indices": 95,
          "material": 23,
          "mode": 4
        }
      ]
    },
    {
      "name": "Material3",
      "primitives": [
        {
          "attributes": {
            "NORMAL": 97,
            "POSITION": 96,
            "TEXCOORD_0": 98
          },
          "indices": 99,
          "material": 24,
          "mode": 4
        }
      ]
    },
    {
      "name": "Material3",
      "primitives": [
        {
          "attributes": {
            "NORMAL": 101,
            "POSITION": 100,
            "TEXCOORD_0": 102
          },
          "indices": 103,
          "material": 25,
          "mode": 4
        }
      ]
    },
    {
      "name": "Material3",
      "primitives": [
        {
          "attributes": {
            "NORMAL": 105,
            "POSITION": 104,
            "TEXCOORD_0": 106
          },
          "indices": 107,
          "material": 26,
          "mode": 4
        }
      ]
    },
    {
      "name": "Material3",
      "primitives": [
        {
          "attributes": {
            "NORMAL": 109,
            "POSITION": 108,
            "TEXCOORD_0": 110
          },
          "indices": 111,
          "material": 27,
          "mode": 4
        }
      ]
    },
    {
      "name": "Material3",
      "primitives": [
        {
          "attributes": {
            "NORMAL": 113,
            "POSITION": 112,
            "TEXCOORD_0": 114
          },
          "indices": 115,
          "material": 28,
          "mode": 4
        }
      ]
    },
    {
      "name": "Material3",
      "primitives": [
        {
          "attributes": {
            "NORMAL": 117,
            "POSITION": 116,
            "TEXCOORD_0": 118
          },
          "indices": 119,
          "material": 29,
          "mode": 4
        }
      ]
    },
    {
      "name": "Material3",
      "primitives": [
        {
          "attributes": {
            "NORMAL": 121,
            "POSITION": 120,
            "TEXCOORD_0": 122
          },
          "indices": 123,
          "material": 30,
          "mode": 4
        }
      ]
    },
    {
      "name": "Material3",
      "primitives": [
        {
          "attributes": {
            "NORMAL": 125,
            "POSITION": 124,
            "TEXCOORD_0": 126
          },
          "indices": 127,
          "material": 31,
          "mode": 4
        }
      ]
    }
  ],
  "nodes": [
    {
      "children": [
        1
      ],
      "matrix": [
        1.0,
        0.0,
        0.0,
        0.0,
        0.0,
        2.220446049250313e-16,
        -1.0,
        0.0,
        0.0,
        1.0,
        2.220446049250313e-16,
        0.0,
        0.0,
        0.0,
        0.0,
        1.0
      ],
      "name": "Sketchfab_model"
    },
    {
      "children": [
        2
      ],
      "matrix": [
        0.009999999776482582,
        0.0,
        0.0,
        0.0,
        0.0,
        2.2204459996194763e-18,
        0.009999999776482582,
        0.0,
        0.0,
        -0.009999999776482582,
        2.2204459996194763e-18,
        0.0,
        0.0,
        0.0,
        0.0,
        1.0
      ],
      "name": "USDRoot"
    },
    {
      "children": [
        3
      ],
      "name": "scene"
    },
    {
      "children": [
        4
      ],
      "matrix": [
        0.33504021167755127,
        0.0,
        0.0,
        0.0,
        0.0,
        0.33504021167755127,
        0.0,
        0.0,
        0.0,
        0.0,
        0.33504021167755127,
        0.0,
        0.0,
        0.0,
        0.0,
        1.0
      ],
      "name": "Meshes"
    },
    {
      "children": [
        5
      ],
      "matrix": [
        1.0,
        0.0,
        0.0,
        0.0,
        0.0,
        2.220446049250313e-16,
        -1.0,
        0.0,
        0.0,
        1.0,
        2.220446049250313e-16,
        0.0,
        0.0,
        0.0,
        0.0,
        1.0
      ],
      "name": "Sketchfab_model"
    },
    {
      "children": [
        6,
        8,
        10,
        12,
        14,
        16,
        18,
        20,
        22,
        24,
        26,
        28,
        30,
        32,
        34,
        36,
        38,
        40,
        42,
        44,
        46,
        48,
        50,
        52,
        54,
        56,
        58,
        60,
        62,
        64,
        66,
        68
      ],
      "name": "Collada_visual_scene_group"
    },
    {
      "children": [
        7
      ],
      "name": "Material2"
    },
    {
      "mesh": 0,
      "name": "Material2"
    },
    {
      "children": [
        9
      ],
      "name": "Material3"
    },
    {
      "mesh": 1,
      "name": "Material3"
    },
    {
      "children": [
        11
      ],
      "name": "Material3_1"
    },
    {
      "mesh": 2,
      "name": "Material3"
    },
    {
      "children": [
        13
      ],
      "name": "Material3_2"
    },
    {
      "mesh": 3,
      "name": "Material3"
    },
    {
      "children": [
        15
      ],
      "name": "Material3_3"
    },
    {
      "mesh": 4,
      "name": "Material3"
    },
    {
      "children": [
        17
      ],
      "name": "Material3_4"
    },
    {
      "mesh": 5,
      "name": "Material3"
    },
    {
      "children": [
        19
      ],
      "name": "Material3_5"
    },
    {
      "mesh": 6,
      "name": "Material3"
    },
    {
      "children": [
        21
      ],
      "name": "Material2_1"
    },
    {
      "mesh": 7,
      "name": "Material2"
    },
    {
      "children": [
        23
      ],
      "name": "Material3_6"
    },
    {
      "mesh": 8,
      "name": "Material3"
    },
    {
      "children": [
        25
      ],
      "name": "Material3_7"
    },
    {
      "mesh": 9,
      "name": "Material3"
    },
    {
      "children": [
        27
      ],
      "name": "Material3_8"
    },
    {
      "mesh": 10,
      "name": "Material3"
    },
    {
      "children": [
        29
      ],
      "name": "Material3_9"
    },
    {
      "mesh": 11,
      "name": "Material3"
    },
    {
      "children": [
        31
      ],
      "name": "Material3_10"
    },
    {
      "mesh": 12,
      "name": "Material3"
    },
    {
      "children": [
        33
      ],
      "name": "Material3_11"
    },
    {
      "mesh": 13,
      "name": "Material3"
    },
    {
      "children": [
        35
      ],
      "name": "Material3_12"
    },
    {
      "mesh": 14,
      "name": "Material3"
    },
    {
      "children": [
        37
      ],
      "name": "Material3_13"
    },
    {
      "mesh": 15,
      "name": "Material3"
    },
    {
      "children": [
        39
      ],
      "name": "Material3_14"
    },
    {
      "mesh": 16,
      "name": "Material3"
    },
    {
      "children": [
        41
      ],
      "name": "Material3_15"
    },
    {
      "mesh": 17,
      "name": "Material3"
    },
    {
      "children": [
        43
      ],
      "name": "Material3_16"
    },
    {
      "mesh": 18,
      "name": "Material3"
    },
    {
      "children": [
        45
      ],
      "name": "Material3_17"
    },
    {
      "mesh": 19,
      "name": "Material3"
    },
    {
      "children": [
        47
      ],
      "name": "Material3_18"
    },
    {
      "mesh": 20,
      "name": "Material3"
    },
    {
      "children": [
        49
      ],
      "name": "Material3_19"
    },
    {
      "mesh": 21,
      "name": "Material3"
    },
    {
      "children": [
        51
      ],
      "name": "Material3_20"
    },
    {
      "mesh": 22,
      "name": "Material3"
    },
    {
      "children": [
        53
      ],
      "name": "Material3_21"
    },
    {
      "mesh": 23,
      "name": "Material3"
    },
    {
      "children": [
        55
      ],
      "name": "Material3_22"
    },
    {
      "mesh": 24,
      "name": "Material3"
    },
    {
      "children": [
        57
      ],
      "name": "Material3_23"
    },
    {
      "mesh": 25,
      "name": "Material3"
    },
    {
      "children": [
        59
      ],
      "name": "Material3_24"
    },
    {
      "mesh": 26,
      "name": "Material3"
    },
    {
      "children": [
        61
      ],
      "name": "Material3_25"
    },
    {
      "mesh": 27,
      "name": "Material3"
    },
    {
      "children": [
        63
      ],
      "name": "Material3_26"
    },
    {
      "mesh": 28,
      "name": "Material3"
    },
    {
      "children": [
        65
      ],
      "name": "Material3_27"
    },
    {
      "mesh": 29,
      "name": "Material3"
    },
    {
      "children": [
        67
      ],
      "name": "Material3_28"
    },
    {
      "mesh": 30,
      "name": "Material3"
    },
    {
      "children": [
        69
      ],
      "name": "Material3_29"
    },
    {
      "mesh": 31,
      "name": "Material3"
    }
  ],
  "samplers": [
    {
      "magFilter": 9729,
      "minFilter": 9987,
      "wrapS": 10497,
      "wrapT": 10497
    }
  ],
  "scene": 0,
  "scenes": [
    {
      "name": "Sketchfab_Scene",
      "nodes": [
        0
      ]
    }
  ],
  "textures": [
    {
      "sampler": 0,
      "source": 0
    },
    {
      "sampler": 0,
      "source": 1
    },
    {
      "sampler": 0,
      "source": 2
    },
    {
      "sampler": 0,
      "source": 3
    },
    {
      "sampler": 0,
      "source": 4
    },
    {
      "sampler": 0,
      "source": 5
    },
    {
      "sampler": 0,
      "source": 6
    },
    {
      "sampler": 0,
      "source": 7
    },
    {
      "sampler": 0,
      "source": 8
    },
    {
      "sampler": 0,
      "source": 9
    },
    {
      "sampler": 0,
      "source": 10
    },
    {
      "sampler": 0,
      "source": 11
    },
    {
      "sampler": 0,
      "source": 12
    },
    {
      "sampler": 0,
      "source": 13
    },
    {
      "sampler": 0,
      "source": 14
    },
    {
      "sampler": 0,
      "source": 15
    },
    {
      "sampler": 0,
      "source": 16
    },
    {
      "sampler": 0,
      "source": 17
    },
    {
      "sampler": 0,
      "source": 18
    },
    {
      "sampler": 0,
      "source": 19
    },
    {
      "sampler": 0,
      "source": 20
    },
    {
      "sampler": 0,
      "source": 21
    },
    {
      "sampler": 0,
      "source": 22
    },
    {
      "sampler": 0,
      "source": 23
    },
    {
      "sampler": 0,
      "source": 24
    },
    {
      "sampler": 0,
      "source": 25
    },
    {
      "sampler": 0,
      "source": 26
    },
    {
      "sampler": 0,
      "source": 27
    },
    {
      "sampler": 0,
      "source": 28
    },
    {
      "sampler": 0,
      "source": 29
    },
    {
      "sampler": 0,
      "source": 30
    }
  ]
}
